<svg xmlns="http://www.w3.org/2000/svg" xmlns:xlink="http://www.w3.org/1999/xlink" viewBox="0 0 845.9 820.08"><defs><style>.cls-1{fill:url(#linear-gradient);}.cls-2{fill:url(#linear-gradient-2);}.cls-3{fill:url(#linear-gradient-3);}.cls-4{fill:url(#linear-gradient-4);}.cls-5{fill:url(#linear-gradient-5);}.cls-6{fill:url(#linear-gradient-6);}.cls-7{fill:url(#linear-gradient-7);}.cls-8{fill:url(#linear-gradient-8);}.cls-9{fill:url(#linear-gradient-9);}.cls-10{fill:url(#linear-gradient-10);}.cls-11{fill:url(#linear-gradient-11);}.cls-12{fill:url(#linear-gradient-12);}.cls-13{fill:url(#linear-gradient-13);}.cls-14{fill:url(#linear-gradient-14);}.cls-15{fill:url(#linear-gradient-15);}.cls-16{fill:url(#linear-gradient-16);}</style><linearGradient id="linear-gradient" y1="406.14" x2="61.46" y2="406.14" gradientUnits="userSpaceOnUse"><stop offset="0.01" stop-color="#491515"/><stop offset="0.11" stop-color="#6a181a"/><stop offset="0.22" stop-color="#881b1e"/><stop offset="0.32" stop-color="#9e1d21"/><stop offset="0.43" stop-color="#ab1f23"/><stop offset="0.52" stop-color="#af1f24"/><stop offset="0.74" stop-color="#7a181a"/><stop offset="0.91" stop-color="#581313"/><stop offset="1" stop-color="#4b1111"/></linearGradient><linearGradient id="linear-gradient-2" x1="54.52" y1="404.91" x2="132.53" y2="404.91" xlink:href="#linear-gradient"/><linearGradient id="linear-gradient-3" x1="106.22" y1="411.15" x2="180.56" y2="411.15" xlink:href="#linear-gradient"/><linearGradient id="linear-gradient-4" x1="161.07" y1="412.1" x2="219.07" y2="412.1" xlink:href="#linear-gradient"/><linearGradient id="linear-gradient-5" x1="209.02" y1="411.61" x2="275.52" y2="411.61" xlink:href="#linear-gradient"/><linearGradient id="linear-gradient-6" x1="254.16" y1="407.03" x2="330.43" y2="407.03" xlink:href="#linear-gradient"/><linearGradient id="linear-gradient-7" x1="311.82" y1="406.22" x2="386.25" y2="406.22" xlink:href="#linear-gradient"/><linearGradient id="linear-gradient-8" x1="364.91" y1="406.06" x2="440.36" y2="406.06" xlink:href="#linear-gradient"/><linearGradient id="linear-gradient-9" x1="405.53" y1="402.03" x2="466.99" y2="402.03" xlink:href="#linear-gradient"/><linearGradient id="linear-gradient-10" x1="460.05" y1="400.8" x2="538.06" y2="400.8" xlink:href="#linear-gradient"/><linearGradient id="linear-gradient-11" x1="511.75" y1="407.04" x2="586.09" y2="407.04" xlink:href="#linear-gradient"/><linearGradient id="linear-gradient-12" x1="566.6" y1="407.99" x2="624.61" y2="407.99" xlink:href="#linear-gradient"/><linearGradient id="linear-gradient-13" x1="614.55" y1="407.5" x2="681.05" y2="407.5" xlink:href="#linear-gradient"/><linearGradient id="linear-gradient-14" x1="659.69" y1="402.93" x2="735.97" y2="402.93" xlink:href="#linear-gradient"/><linearGradient id="linear-gradient-15" x1="717.35" y1="402.12" x2="791.79" y2="402.12" xlink:href="#linear-gradient"/><linearGradient id="linear-gradient-16" x1="770.44" y1="401.95" x2="845.9" y2="401.95" xlink:href="#linear-gradient"/></defs><title>curtainRight</title><g id="Layer_2" data-name="Layer 2"><g id="Layer_1-2" data-name="Layer 1"><path class="cls-1" d="M54.52,805.33a540.56,540.56,0,0,1-54.3,2.84Q-.46,406.14.16,4.11H54.74C54.76,268.4,70,542.24,54.52,805.33Z"/><path class="cls-2" d="M106.22,805.7c-17.81-2.83-33.8-2.72-51.7-.37C70,542.24,54.75,268.4,54.74,4.11h54.58C109.33,207.45,163.53,628.48,106.22,805.7Z"/><path class="cls-3" d="M161.07,818.18c-18.71-3.12-36.56-8.06-54.85-12.48,57.33-177.21,3.09-598.25,3.1-801.59H163.9C163.93,253.85,203.19,577.46,161.07,818.18Z"/><path class="cls-4" d="M219.07,819.1a299.72,299.72,0,0,1-58-.92c42.12-240.72,2.86-564.33,2.83-814.07h54.58C218.52,270.08,196.77,555.56,219.07,819.1Z"/><path class="cls-5" d="M275.52,810c-18.83,3-37.5,6.72-56.45,9.15-22.27-263.55-.57-549-.59-815h54.57C273.11,243.56,228.91,582.72,275.52,810Z"/><path class="cls-6" d="M330.43,808c-18.43-.15-36.58.26-54.91,1.93-46.61-227.23-2.41-566.39-2.47-805.83h54.58C327.71,252.72,290.2,567.58,330.43,808Z"/><path class="cls-7" d="M386.25,808c-18.62.57-37.19.3-55.82,0-40.23-240.44-2.72-555.3-2.8-803.9H382.2C382.31,246.89,340.66,575.75,386.25,808Z"/><path class="cls-8" d="M440.36,801.89c-18,2.12-36,4.58-54.11,6.1-45.57-232.24-4-561.1-4.05-803.86h54.57C436.9,241.55,393.44,576.45,440.36,801.89Z"/><path class="cls-9" d="M460.05,801.22a537.47,537.47,0,0,1-54.3,2.84Q405.08,402,405.69,0h54.58C460.29,264.29,475.53,538.13,460.05,801.22Z"/><path class="cls-10" d="M511.75,801.6c-17.81-2.84-33.8-2.73-51.7-.38,15.49-263.09.23-536.93.22-801.22h54.58C514.87,203.34,569.06,624.37,511.75,801.6Z"/><path class="cls-11" d="M566.6,814.08C547.89,811,530,806,511.75,801.6c57.33-177.22,3.1-598.25,3.1-801.6h54.58C569.46,249.75,608.72,573.35,566.6,814.08Z"/><path class="cls-12" d="M624.61,815a299.83,299.83,0,0,1-58-.91C608.72,573.35,569.46,249.75,569.43,0H624C624.06,266,602.3,551.45,624.61,815Z"/><path class="cls-13" d="M681.05,805.84c-18.83,3-37.5,6.72-56.44,9.15C602.33,551.44,624,266,624,0h54.57C678.64,239.45,634.44,578.61,681.05,805.84Z"/><path class="cls-14" d="M736,803.92c-18.43-.16-36.59.26-54.92,1.92C634.44,578.61,678.64,239.45,678.58,0h54.58C733.24,248.61,695.73,563.47,736,803.92Z"/><path class="cls-15" d="M791.79,803.88c-18.62.57-37.2.3-55.82,0C695.73,563.47,733.24,248.61,733.16,0h54.57C787.84,242.79,746.19,571.65,791.79,803.88Z"/><path class="cls-16" d="M845.9,797.78c-18,2.12-36,4.58-54.11,6.1-45.58-232.24-4-561.1-4.06-803.86H842.3C842.43,237.45,799,572.34,845.9,797.78Z"/></g></g></svg>