<svg xmlns="http://www.w3.org/2000/svg" xmlns:xlink="http://www.w3.org/1999/xlink" viewBox="0 0 860.6 815.98"><defs><style>.cls-1{fill:url(#linear-gradient);}.cls-2{fill:url(#linear-gradient-2);}.cls-3{fill:url(#linear-gradient-3);}.cls-4{fill:url(#linear-gradient-4);}.cls-5{fill:url(#linear-gradient-5);}.cls-6{fill:url(#linear-gradient-6);}.cls-7{fill:url(#linear-gradient-7);}.cls-8{fill:url(#linear-gradient-8);}.cls-9{fill:url(#linear-gradient-9);}.cls-10{fill:url(#linear-gradient-10);}.cls-11{fill:url(#linear-gradient-11);}.cls-12{fill:url(#linear-gradient-12);}.cls-13{fill:url(#linear-gradient-13);}.cls-14{fill:url(#linear-gradient-14);}.cls-15{fill:url(#linear-gradient-15);}.cls-16{fill:url(#linear-gradient-16);}</style><linearGradient id="linear-gradient" x1="1537.6" y1="402.03" x2="1599.06" y2="402.03" gradientTransform="matrix(-1, 0, 0, 1, 2398.19, 0)" gradientUnits="userSpaceOnUse"><stop offset="0.01" stop-color="#491515"/><stop offset="0.11" stop-color="#6a181a"/><stop offset="0.22" stop-color="#881b1e"/><stop offset="0.32" stop-color="#9e1d21"/><stop offset="0.43" stop-color="#ab1f23"/><stop offset="0.52" stop-color="#af1f24"/><stop offset="0.74" stop-color="#7a181a"/><stop offset="0.91" stop-color="#581313"/><stop offset="1" stop-color="#4b1111"/></linearGradient><linearGradient id="linear-gradient-2" x1="1592.12" y1="400.8" x2="1670.12" y2="400.8" xlink:href="#linear-gradient"/><linearGradient id="linear-gradient-3" x1="1643.82" y1="407.04" x2="1718.16" y2="407.04" xlink:href="#linear-gradient"/><linearGradient id="linear-gradient-4" x1="1698.66" y1="407.99" x2="1756.67" y2="407.99" xlink:href="#linear-gradient"/><linearGradient id="linear-gradient-5" x1="1746.62" y1="407.5" x2="1813.11" y2="407.5" xlink:href="#linear-gradient"/><linearGradient id="linear-gradient-6" x1="1791.76" y1="402.93" x2="1868.03" y2="402.93" xlink:href="#linear-gradient"/><linearGradient id="linear-gradient-7" x1="1849.41" y1="402.12" x2="1923.85" y2="402.12" xlink:href="#linear-gradient"/><linearGradient id="linear-gradient-8" x1="1902.51" y1="401.95" x2="1977.96" y2="401.95" xlink:href="#linear-gradient"/><linearGradient id="linear-gradient-9" x1="1957.83" y1="402.04" x2="2019.29" y2="402.04" xlink:href="#linear-gradient"/><linearGradient id="linear-gradient-10" x1="2012.35" y1="400.81" x2="2090.35" y2="400.81" xlink:href="#linear-gradient"/><linearGradient id="linear-gradient-11" x1="2064.05" y1="407.05" x2="2138.39" y2="407.05" xlink:href="#linear-gradient"/><linearGradient id="linear-gradient-12" x1="2118.9" y1="407.99" x2="2176.9" y2="407.99" xlink:href="#linear-gradient"/><linearGradient id="linear-gradient-13" x1="2166.85" y1="407.5" x2="2233.35" y2="407.5" xlink:href="#linear-gradient"/><linearGradient id="linear-gradient-14" x1="2211.99" y1="402.93" x2="2288.26" y2="402.93" xlink:href="#linear-gradient"/><linearGradient id="linear-gradient-15" x1="2269.64" y1="402.12" x2="2344.08" y2="402.12" xlink:href="#linear-gradient"/><linearGradient id="linear-gradient-16" x1="2322.74" y1="401.95" x2="2398.19" y2="401.95" xlink:href="#linear-gradient"/></defs><title>curtainLeft</title><g id="Layer_2" data-name="Layer 2"><g id="Layer_1-2" data-name="Layer 1"><path class="cls-1" d="M806.07,801.22a537.82,537.82,0,0,0,54.31,2.84q.68-402,.06-804.06H805.86C805.84,264.29,790.6,538.13,806.07,801.22Z"/><path class="cls-2" d="M754.37,801.6c17.82-2.84,33.81-2.73,51.7-.38-15.49-263.09-.22-536.93-.21-801.22H751.28C751.26,203.34,697.06,624.37,754.37,801.6Z"/><path class="cls-3" d="M699.53,814.08c18.7-3.13,36.56-8.07,54.84-12.48C697.05,624.38,751.28,203.35,751.28,0H696.7C696.67,249.75,657.41,573.35,699.53,814.08Z"/><path class="cls-4" d="M641.52,815a299.83,299.83,0,0,0,58-.91C657.4,573.35,696.67,249.75,696.7,0H642.12C642.07,266,663.82,551.45,641.52,815Z"/><path class="cls-5" d="M585.08,805.84c18.82,3,37.5,6.72,56.44,9.15,22.28-263.55.58-549,.6-815H587.54C587.48,239.45,631.68,578.61,585.08,805.84Z"/><path class="cls-6" d="M530.16,803.92c18.43-.16,36.59.26,54.92,1.92,46.6-227.23,2.4-566.39,2.46-805.83H533C532.88,248.61,570.39,563.47,530.16,803.92Z"/><path class="cls-7" d="M474.34,803.88c18.62.57,37.2.3,55.82,0C570.39,563.47,532.88,248.61,533,0H478.39C478.28,242.79,519.94,571.65,474.34,803.88Z"/><path class="cls-8" d="M420.23,797.78c18,2.12,36,4.58,54.11,6.1,45.58-232.24,4-561.1,4.05-803.86H423.83C423.69,237.45,467.16,572.34,420.23,797.78Z"/><path class="cls-9" d="M385.84,801.23a540.6,540.6,0,0,0,54.31,2.84q.66-402,.06-804.06H385.63C385.6,264.3,370.36,538.14,385.84,801.23Z"/><path class="cls-10" d="M334.14,801.6c17.82-2.83,33.8-2.73,51.7-.37C370.35,538.14,385.62,264.3,385.63,0H331.05C331,203.35,276.83,624.38,334.14,801.6Z"/><path class="cls-11" d="M279.3,814.08C298,811,315.85,806,334.14,801.6,276.82,624.39,331.05,203.35,331.05,0H276.47C276.43,249.75,237.17,573.36,279.3,814.08Z"/><path class="cls-12" d="M221.29,815a300.64,300.64,0,0,0,58-.92C237.17,573.36,276.44,249.75,276.47,0H221.89C221.84,266,243.59,551.46,221.29,815Z"/><path class="cls-13" d="M164.85,805.85c18.82,3,37.5,6.71,56.44,9.15,22.28-263.55.58-549,.6-815H167.31C167.25,239.45,211.45,578.62,164.85,805.85Z"/><path class="cls-14" d="M109.93,803.92c18.43-.15,36.59.26,54.92,1.93,46.6-227.23,2.4-566.4,2.46-805.83H112.74C112.65,248.62,150.16,563.48,109.93,803.92Z"/><path class="cls-15" d="M54.11,803.89c18.62.57,37.19.3,55.82,0,40.23-240.44,2.72-555.3,2.81-803.9H58.16C58.05,242.79,99.71,571.65,54.11,803.89Z"/><path class="cls-16" d="M0,797.79c18,2.12,36,4.58,54.11,6.1,45.57-232.25,4-561.1,4-803.86H3.6C3.46,237.45,46.92,572.34,0,797.79Z"/></g></g></svg>